<?xml version="1.0" encoding="UTF-8" standalone="no"?>
<svg width="105px" height="62px" viewBox="0 0 105 62" version="1.1" xmlns="http://www.w3.org/2000/svg" xmlns:xlink="http://www.w3.org/1999/xlink" xmlns:sketch="http://www.bohemiancoding.com/sketch/ns">
    <!-- Generator: Sketch 3.1 (8751) - http://www.bohemiancoding.com/sketch -->
    <title>R + Rectangle 27</title>
    <desc>Created with Sketch.</desc>
    <defs>
        <linearGradient x1="0%" y1="50%" x2="100%" y2="50%" id="linearGradient-1">
            <stop stop-color="#0BBA96" offset="0%"></stop>
            <stop stop-color="#15DAB2" offset="100%"></stop>
        </linearGradient>
        <path d="M32.800855,36.7016254 L32.800855,58.1954023 L46.2646303,58.1954023 L46.2646303,0.0944135999 L27.3834779,0.0944135999 C23.1876453,0.0944135999 19.6092911,0.526411598 16.648308,1.39042055 C13.6873248,2.25442951 11.2707739,3.45737778 9.39858281,4.99930146 C7.52639168,6.54122513 6.16542209,8.36226285 5.3156332,10.4624692 C4.46584432,12.5626756 4.04095625,14.848942 4.04095625,17.3213368 C4.04095625,19.2088641 4.29323354,20.990025 4.79779569,22.6648732 C5.30235784,24.3397213 6.05255084,25.888268 7.04839718,27.3105596 C8.04424353,28.7328513 9.26579673,30.0022608 10.7130934,31.1188262 C12.1603901,32.2353917 13.826748,33.1525566 15.7122171,33.8703487 C14.8093164,34.3222918 13.972818,34.8872123 13.2026968,35.565127 C12.4325757,36.2430417 11.7421326,37.0472226 11.1313468,37.9776938 L0.00340617212,60.9157776 L10.7130933,60.0335207 C12.9703451,60.0335207 14.8491497,57.3446985 15.831718,55.6432655 L25.4714625,38.7752365 C25.9229128,38.0574445 26.4274674,37.5324008 26.9851414,37.2000896 C27.5428153,36.8677785 28.3394805,36.7016254 29.3751607,36.7016254 L32.800855,36.7016254 Z M32.800855,27.4102525 L27.3834779,27.4102525 C25.5511206,27.4102525 23.9909848,27.1776382 22.7030235,26.7124026 C21.4150622,26.247167 20.3594809,25.6024931 19.5362479,24.7783614 C18.713015,23.9542298 18.1155161,22.990542 17.7437335,21.887269 C17.3719508,20.783996 17.1860623,19.59434 17.1860623,18.3182652 C17.1860623,15.7661157 18.0159218,13.7722788 19.6756657,12.3366947 C21.3354096,10.9011106 23.9046547,10.1833293 27.3834779,10.1833293 L32.800855,10.1833293 L32.800855,27.4102525 Z M61.4088103,0.0944135999 C61.9930402,0.0944135999 62.484317,0.120998092 62.8826555,0.174167874 C63.2809941,0.227337656 63.6394934,0.327029502 63.9581642,0.473246402 C64.2768351,0.619463302 64.5822234,0.825493117 64.8743383,1.09134203 C65.1664532,1.35719094 65.498397,1.71608158 65.8701796,2.16802473 L93.4350687,37.0605197 C93.3288451,35.9439542 93.2491786,34.8606362 93.1960668,33.810533 C93.142955,32.7604298 93.1163995,31.7701575 93.1163995,30.8396863 L93.1163995,0.0944135999 L104.986829,0.0944135999 L104.986829,58.1954023 L97.9761054,58.1954023 C96.9404251,58.1954023 96.0707324,58.0292492 95.367001,57.6969381 C94.6632695,57.3646269 93.9661876,56.7864142 93.2757341,55.9622826 L65.9100133,21.3489277 C65.989681,22.3591535 66.0560698,23.3494258 66.1091816,24.3197744 C66.1622934,25.2901229 66.1888489,26.2006417 66.1888489,27.0513583 L66.1888489,58.1954023 L54.3184198,58.1954023 L54.3184198,0.0944135999 L61.4088103,0.0944135999 Z" id="path-2"></path>
    </defs>
    <g id="Page-1" stroke="none" stroke-width="1" fill="none" fill-rule="evenodd" sketch:type="MSPage">
        <g id="Leiska-3" sketch:type="MSLayerGroup" transform="translate(-451.000000, -47.880859)">
            <g id="R-+-Rectangle-27" transform="translate(451.000000, 48.000000)">
                <mask id="mask-3" sketch:name="R" fill="white">
                    <use xlink:href="#path-2"></use>
                </mask>
                <g id="R">
                    <use fill="#0BBA96" sketch:type="MSShapeGroup" xlink:href="#path-2"></use>
                    <use fill="url(#linearGradient-1)" xlink:href="#path-2"></use>
                </g>
            </g>
        </g>
    </g>
</svg>